<svg xmlns="http://www.w3.org/2000/svg" width="655.359" height="655.359" fill-rule="evenodd" clip-rule="evenodd" image-rendering="optimizeQuality" shape-rendering="geometricPrecision" text-rendering="geometricPrecision" viewBox="0 0 6.827 6.827" id="tornado"><path fill="#b0bec5" d="m1.685 1.52.094.204a.099.099 0 0 1 .01.023c.156.636.11.888.068 1.121-.03.167-.059.323.009.638.09.42.553.974.986 1.492.296.354.579.691.73.975-.002-.135-.02-.313-.04-.514-.07-.702-.163-1.65.32-2.24l.382-.463c.553-.67 1.612-1.426.562-1.737-.347-.102-.828-.166-1.36-.166-.534 0-1.015.064-1.361.166-.315.093-.51.209-.51.325 0 .052.043.113.11.176z"></path><ellipse cx="3.416" cy="1.352" fill="#484745" rx="1.407" ry=".296"></ellipse><path fill="none" d="M0 0h6.827v6.827H0z"></path></svg>